# xmcd CD database file
#
# Track frame offsets:
#	150
#	45013
#	75730
#	101223
#	123862
#	153265
#
# Disc length: 3044 seconds
#
# Revision: 1
# Processed by: cddbd v1.5.2PL0 Copyright (c) Steve Scherf et al.
# Submitted via: CDex 1.70beta2
#
DISCID=390be206
DTITLE=Patrick Lampron  Craig Pedersen - Live in Silence
DYEAR=2013
DGENRE=Jazz
TTITLE0=Iguana Buick Ottaman
TTITLE1=New Freygish Tune
TTITLE2=Sketch #1
TTITLE3=No bullet Theory
TTITLE4=Elyxium
TTITLE5=Obrigado
EXTD=YEAR: 2013
EXTT0=
EXTT1=
EXTT2=
EXTT3=
EXTT4=
EXTT5=
PLAYORDER=
